<svg width="48" height="49" viewBox="0 0 48 49" fill="none" xmlns="http://www.w3.org/2000/svg">
<rect opacity="0.16" x="8" y="14.7112" width="32" height="32" rx="16" fill="#EF5350"/>
<path d="M37.56 11.1312C34.89 14.6112 29.94 15.3212 29.94 15.3212C29.94 15.3212 29.33 10.3812 32 6.90118C34.66 3.42118 39.61 2.71118 39.61 2.71118C39.61 2.71118 40.23 7.65118 37.56 11.1312Z" stroke="#22222C" stroke-width="2" stroke-miterlimit="10" stroke-linecap="round" stroke-linejoin="round"/>
<path d="M29.88 18.7612C29.88 15.6812 27.89 11.4612 24.12 8.44116" stroke="#22222C" stroke-width="2" stroke-miterlimit="10" stroke-linecap="round" stroke-linejoin="round"/>
<path d="M12 22.2712H5C3.34 22.2712 2 23.6112 2 25.2712C2 26.9312 3.34 28.2712 5 28.2712H38V40.2712H5C3.34 40.2712 2 38.9312 2 37.2712V25.2712" stroke="#22222C" stroke-width="2" stroke-miterlimit="10" stroke-linecap="round" stroke-linejoin="round"/>
<path d="M14.63 25.2712C15.33 22.6112 16.68 20.1712 19 18.7612C23.34 16.1212 26.71 18.7612 29.88 18.7612C33.05 18.7612 36.27 16.3712 40.76 18.7612C45.23 21.1412 47.26 27.9212 45.18 35.3312C43.24 42.2412 38.15 46.2712 34.23 46.2712C32.61 46.2712 31.21 45.1212 29.88 45.1212C28.55 45.1212 27.15 46.2712 25.53 46.2712C23.47 46.2712 21.08 45.1512 19 43.0912" stroke="#22222C" stroke-width="2" stroke-miterlimit="10" stroke-linecap="round" stroke-linejoin="round"/>
<path d="M14 34.2712V40.2712" stroke="#22222C" stroke-width="2" stroke-miterlimit="10" stroke-linecap="round" stroke-linejoin="round"/>
<path d="M14 34.2712V40.2712" stroke="#22222C" stroke-width="2" stroke-miterlimit="10" stroke-linecap="round" stroke-linejoin="round"/>
<path d="M8 34.2712V40.2712" stroke="#22222C" stroke-width="2" stroke-miterlimit="10" stroke-linecap="round" stroke-linejoin="round"/>
<path d="M20 34.2712V40.2712" stroke="#22222C" stroke-width="2" stroke-miterlimit="10" stroke-linecap="round" stroke-linejoin="round"/>
<path d="M26 34.2712V40.2712" stroke="#22222C" stroke-width="2" stroke-miterlimit="10" stroke-linecap="round" stroke-linejoin="round"/>
<path d="M32 34.2712V40.2712" stroke="#22222C" stroke-width="2" stroke-miterlimit="10" stroke-linecap="round" stroke-linejoin="round"/>
</svg>
