<svg width="48" height="49" viewBox="0 0 48 49" fill="none" xmlns="http://www.w3.org/2000/svg">
<rect x="13" y="5.71118" width="32" height="32" rx="16" fill="#E5FCE3"/>
<path d="M41 1.71118L11 1.71118C8.5 1.71118 7 3.20071 7 5.65404M7 5.65404C7 8.10737 8.5 9.71118 11 9.71118H41V47.7112H10.443C9.29536 47.7112 7 46.9226 7 43.7683C7 40.614 7 17.0445 7 5.65404ZM41 5.65404H12" stroke="#22222C" stroke-width="2" stroke-linecap="round" stroke-linejoin="round"/>
<path d="M33.7022 25.2889C34.2626 27.5335 34.0274 29.903 33.0366 31.9937C32.0458 34.0844 30.3608 35.7668 28.2686 36.7544C26.1764 37.7419 23.8065 37.9735 21.5627 37.4096C19.3189 36.8457 17.3401 35.5213 15.9633 33.662C14.5866 31.8027 13.8971 29.5235 14.0124 27.2128C14.1277 24.9021 15.0407 22.7029 16.5957 20.9899C18.1507 19.2769 20.2515 18.156 22.5403 17.8183C24.8291 17.4806 27.1642 17.9469 29.1476 19.1379" stroke="#22222C" stroke-width="2"/>
<path d="M18.5 26.2112L23 30.7112L33.5 20.2112" stroke="#22222C" stroke-width="2" stroke-linecap="round"/>
</svg>
