<svg width="49" height="49" viewBox="0 0 49 49" fill="none" xmlns="http://www.w3.org/2000/svg">
<rect opacity="0.24" x="16" y="0.711182" width="32" height="32" rx="16" fill="#C8E6C9"/>
<path d="M6.72168 18.6843C6.72168 18.6843 5.21388 19.8198 3.20681 21.4879C1.19973 23.156 1.88873 25.7185 3.81592 27.9192C6.4321 30.9137 8.64887 32.5617 14.021 33.5465C17.6358 34.2097 19.0038 34.2801 21.4502 36.1693L22.958 37.5459C24.2461 39.1035 28.1105 41.7162 30.5469 41.7162C32.9834 41.7162 38.9147 41.7162 40.2029 41.7162C43.1186 41.7162 44.8661 39.626 45.9145 37.968C46.304 37.355 46.973 36.109 47.4223 34.8127" stroke="#22222C" stroke-width="2" stroke-miterlimit="10"/>
<path d="M7.54049 16.5842C7.08115 17.2776 6.6418 18.4734 6.53196 19.3778C6.07263 23.0154 11.6046 26.9546 13.9811 27.8188C17.3362 29.0347 20.6314 28.4117 23.7868 32.2704C26.9422 36.1291 31.186 37.6867 35.9491 37.6867C40.7121 37.6867 44.5865 37.7269 46.5037 36.1894C47.7219 34.9836 48.7005 31.7981 47.3424 31.2555C45.6349 30.5722 41.4111 29.6678 39.0146 29.0749C37.3071 26.844 31.0262 17.4685 30.0277 15.0769C29.2488 13.2179 28.3302 13.0169 26.6426 13.6399C25.1348 14.2026 22.279 15.5291 19.4232 13.1676C16.5673 10.8061 18.8939 9.07775 17.0566 8.85668C15.2293 8.6356 14.7 8.51502 13.2022 9.88165C12.014 10.9669 7.99982 15.9009 7.54049 16.5842Z" stroke="#22222C" stroke-width="2" stroke-miterlimit="10"/>
<path d="M32.9534 15.5793L26.9622 18.594" stroke="#22222C" stroke-width="2" stroke-miterlimit="10"/>
<path d="M34.9505 18.594L28.9592 21.6086" stroke="#22222C" stroke-width="2" stroke-miterlimit="10"/>
<path d="M36.9476 21.6086L30.9564 24.6233" stroke="#22222C" stroke-width="2" stroke-miterlimit="10"/>
<path d="M38.9447 24.6233L32.9534 27.6379" stroke="#22222C" stroke-width="2" stroke-miterlimit="10"/>
</svg>
