<svg width="48" height="49" viewBox="0 0 48 49" fill="none" xmlns="http://www.w3.org/2000/svg">
<rect opacity="0.24" x="16" y="5.71118" width="32" height="32" rx="16" fill="#26C6DA"/>
<path d="M34 40.7112H10C8.34 40.7112 7 39.3712 7 37.7112V12.7112C7 11.0512 8.34 9.71118 10 9.71118H34C35.66 9.71118 37 11.0512 37 12.7112V37.7112C37 39.3712 35.66 40.7112 34 40.7112Z" stroke="#22222C" stroke-width="2" stroke-miterlimit="10"/>
<path d="M11 9.71118V2.71118C11 2.16118 11.45 1.71118 12 1.71118H32C32.55 1.71118 33 2.16118 33 2.71118V9.71118" stroke="#22222C" stroke-width="2" stroke-miterlimit="10"/>
<path d="M33 40.7112V46.7112C33 47.2612 32.55 47.7112 32 47.7112H12C11.45 47.7112 11 47.2612 11 46.7112V40.7112" stroke="#22222C" stroke-width="2" stroke-miterlimit="10"/>
<path d="M37 15.7112H40C40.55 15.7112 41 16.1612 41 16.7112V22.7112C41 23.2612 40.55 23.7112 40 23.7112H37" stroke="#22222C" stroke-width="2" stroke-miterlimit="10"/>
<path d="M29.98 18.7212C27.9 17.1212 23.9 17.2512 22 20.3412C20.1 17.2512 16.09 17.1212 14.02 18.7212C12.16 20.1512 11.77 22.4912 12.12 24.1712C13.18 29.2812 18.26 30.7912 22.01 34.6512C25.76 30.7912 30.84 29.2812 31.9 24.1712C32.23 22.5012 31.84 20.1512 29.98 18.7212Z" stroke="#22222C" stroke-width="2" stroke-miterlimit="10"/>
</svg>
