<svg width="48" height="49" viewBox="0 0 48 49" fill="none" xmlns="http://www.w3.org/2000/svg">
<rect opacity="0.24" x="8" y="14.7112" width="32" height="32" rx="16" fill="#22222C"/>
<path d="M46.0246 10.8093L31.3155 4.69165L9.07631 13.6034C2.45332 16.6426 0.190387 27.2015 3.43848 33.025C6.0428 37.6818 11.5148 40.476 17.8744 42.9956C20.3227 43.9662 22.9173 43.8681 25.0534 43.3485C29.472 42.2799 33.5101 39.0838 34.466 34.0348C35.061 30.9171 34.4855 27.9171 33.1102 25.6916L46.0246 18.2015V10.8093Z" stroke="#22222C" stroke-width="2" stroke-miterlimit="10" stroke-linecap="round" stroke-linejoin="round"/>
<path d="M46.0246 10.8093L23.7561 22.7995V22.7897C21.0153 24.1329 18.7816 27.1132 18.0695 30.8878C17.4063 34.3878 18.5182 38.1133 20.6641 40.4662" stroke="#22222C" stroke-width="2" stroke-miterlimit="10" stroke-linecap="round"/>
<path d="M12.3732 15.9662L20.2349 20.3583L25.0534 17.9269L17.2502 14.0054L12.3732 15.9662Z" stroke="#22222C" stroke-width="2" stroke-miterlimit="10" stroke-linecap="round" stroke-linejoin="round"/>
</svg>
